# Blender v2.76 (sub 0) OBJ File: 'testCube.blend'
# www.blender.org
mtllib testCube.mtl
o Cube
v 1.000000 0.000000 -1.000000
v 1.000000 0.000000 1.000000
v -1.000000 0.000000 1.000000
v -1.000000 0.000000 -1.000000
v 1.000000 2.000000 -0.999999
v 0.999999 2.000000 1.000001
v -1.000000 2.000000 1.000000
v -1.000000 2.000000 -1.000000
vt 0.647786 0.328776
vt 0.647786 0.662109
vt 0.314453 0.662109
vt 0.314453 0.328776
vt 0.330729 0.332682
vt -0.002604 0.332682
vt -0.002604 -0.000651
vt 0.330729 -0.000651
vt 0.335143 0.667771
vt 0.335143 1.001104
vt 0.001810 1.001105
vt 0.001810 0.667771
vt 0.995267 0.000000
vt 0.995267 0.333333
vt 0.661934 0.333333
vt 0.661934 0.000000
vt 0.330078 0.333984
vt 0.330078 0.667318
vt -0.003255 0.667318
vt -0.003255 0.333984
vt 0.333984 0.334635
vt 0.333984 0.001302
vt 0.667318 0.001302
vt 0.667318 0.334635
vn 0.000000 -1.000000 0.000000
vn 0.000000 1.000000 0.000000
vn 1.000000 0.000000 0.000000
vn -0.000000 -0.000000 1.000000
vn -1.000000 -0.000000 -0.000000
vn 0.000000 0.000000 -1.000000
usemtl Material
s off
f 1/1/1 2/2/1 3/3/1 4/4/1
f 5/5/2 8/6/2 7/7/2 6/8/2
f 1/9/3 5/10/3 6/11/3 2/12/3
f 2/13/4 6/14/4 7/15/4 3/16/4
f 3/17/5 7/18/5 8/19/5 4/20/5
f 5/21/6 1/22/6 4/23/6 8/24/6
