# Blender v2.76 (sub 0) OBJ File: 'walls.blend'
# www.blender.org
mtllib walls.mtl
o PlaneGround.001_Plane.005
v 13.668276 13.017547 14.397369
v -6.611607 13.017547 14.397369
v 13.668276 13.017550 -5.106096
v -6.611607 13.017550 -5.106096
vt 0.999900 0.999900
vt 0.000100 0.999900
vt 0.000100 0.000100
vt 0.999900 0.000100
vn 0.000000 -1.000000 -0.000000
usemtl Floor
s off
f 1/1/1 2/2/1 4/3/1 3/4/1
o PlaneBackLeft.001_Plane.004
v 13.327464 -0.275374 -5.288796
v 13.327459 -0.275374 13.772794
v 13.327466 13.530262 -5.288796
v 13.327461 13.530262 13.772794
vt 0.000100 0.000100
vt 0.999900 0.000100
vt 0.999900 0.999900
vt 0.000100 0.999900
vn -1.000000 0.000000 -0.000000
usemtl WallLeft
s off
f 5/5/2 6/6/2 8/7/2 7/8/2
o PlaneBackRight.001_Plane.003
v 13.577042 -0.384892 13.643497
v -6.810907 -0.384892 13.643500
v 13.577042 13.530262 13.643499
v -6.810907 13.530262 13.643502
vt 0.000445 0.000100
vt 0.999900 0.000445
vt 0.999555 0.999900
vt 0.000100 0.999555
vn -0.000000 0.000000 -1.000000
usemtl WallRight
s off
f 9/9/3 10/10/3 12/11/3 11/12/3
o PlaneBackLeft_Plane.002
v -6.497591 -0.275374 14.008855
v -6.497589 -0.275374 -5.052735
v -6.497593 13.530262 14.008855
v -6.497591 13.530262 -5.052735
vt 0.000100 0.000100
vt 0.999900 0.000100
vt 0.999900 0.999900
vt 0.000100 0.999900
vn 1.000000 0.000000 0.000000
usemtl WallLeft
s off
f 13/13/4 14/14/4 16/15/4 15/16/4
o PlaneBackRight_Plane.001
v -6.845235 -0.384892 -4.898450
v 13.542713 -0.384892 -4.898450
v -6.845235 13.530262 -4.898452
v 13.542713 13.530262 -4.898452
vt 0.000445 0.000100
vt 0.999900 0.000445
vt 0.999555 0.999900
vt 0.000100 0.999555
vn 0.000000 0.000000 1.000000
usemtl WallRight
s off
f 17/17/5 18/18/5 20/19/5 19/20/5
o PlaneGround_Plane
v 13.668276 0.000000 -5.835189
v -6.611607 0.000000 -5.835189
v 13.668276 0.000000 13.668276
v -6.611607 0.000000 13.668276
vt 0.999900 0.999900
vt 0.000100 0.999900
vt 0.000100 0.000100
vt 0.999900 0.000100
vn 0.000000 1.000000 0.000000
usemtl Floor
s off
f 21/21/6 22/22/6 24/23/6 23/24/6
